{"asset":{"version":"2.0","generator":"Blockbench 4.10.3 glTF exporter"},"scenes":[{"nodes":[13],"name":"blockbench_export"}],"scene":0,"nodes":[{"translation":[0.6343749999999999,0.359375,0.48015624999999995],"name":"barrel","mesh":0},{"translation":[0.6343749999999999,0.359375,0.48015624999999995],"name":"cube","mesh":1},{"translation":[0.6343749999999999,0.359375,0.48015624999999995],"name":"cube","mesh":2},{"translation":[0.6343749999999999,0.359375,0.48015624999999995],"name":"cube","mesh":3},{"translation":[0.6343749999999999,0.359375,0.48015624999999995],"name":"cube","mesh":4},{"translation":[0.6343749999999999,0.359375,0.48015624999999995],"name":"cube","mesh":5},{"translation":[0.6343749999999999,0.359375,0.48015624999999995],"name":"cube","mesh":6},{"translation":[0.6343749999999999,0.359375,0.48015624999999995],"name":"cube","mesh":7},{"translation":[0.6343749999999999,0.359375,0.48015624999999995],"name":"cube","mesh":8},{"translation":[0.6343749999999999,0.359375,0.48015624999999995],"name":"cube","mesh":9},{"translation":[0.6343749999999999,0.359375,0.48015624999999995],"name":"cube","mesh":10},{"translation":[0.6343749999999999,0.359375,0.48015624999999995],"name":"cube","mesh":11},{"name":"hopper"},{"translation":[-0.5,-0.5,-0.5],"children":[0,1,2,3,4,5,6,7,8,9,10,11,12]}],"bufferViews":[{"buffer":0,"byteOffset":0,"byteLength":288,"target":34962,"byteStride":12},{"buffer":0,"byteOffset":288,"byteLength":288,"target":34962,"byteStride":12},{"buffer":0,"byteOffset":576,"byteLength":192,"target":34962,"byteStride":8},{"buffer":0,"byteOffset":768,"byteLength":72,"target":34963},{"buffer":0,"byteOffset":840,"byteLength":288,"target":34962,"byteStride":12},{"buffer":0,"byteOffset":1128,"byteLength":288,"target":34962,"byteStride":12},{"buffer":0,"byteOffset":1416,"byteLength":192,"target":34962,"byteStride":8},{"buffer":0,"byteOffset":1608,"byteLength":72,"target":34963},{"buffer":0,"byteOffset":1680,"byteLength":288,"target":34962,"byteStride":12},{"buffer":0,"byteOffset":1968,"byteLength":288,"target":34962,"byteStride":12},{"buffer":0,"byteOffset":2256,"byteLength":192,"target":34962,"byteStride":8},{"buffer":0,"byteOffset":2448,"byteLength":72,"target":34963},{"buffer":0,"byteOffset":2520,"byteLength":288,"target":34962,"byteStride":12},{"buffer":0,"byteOffset":2808,"byteLength":288,"target":34962,"byteStride":12},{"buffer":0,"byteOffset":3096,"byteLength":192,"target":34962,"byteStride":8},{"buffer":0,"byteOffset":3288,"byteLength":60,"target":34963},{"buffer":0,"byteOffset":3348,"byteLength":288,"target":34962,"byteStride":12},{"buffer":0,"byteOffset":3636,"byteLength":288,"target":34962,"byteStride":12},{"buffer":0,"byteOffset":3924,"byteLength":192,"target":34962,"byteStride":8},{"buffer":0,"byteOffset":4116,"byteLength":60,"target":34963},{"buffer":0,"byteOffset":4176,"byteLength":288,"target":34962,"byteStride":12},{"buffer":0,"byteOffset":4464,"byteLength":288,"target":34962,"byteStride":12},{"buffer":0,"byteOffset":4752,"byteLength":192,"target":34962,"byteStride":8},{"buffer":0,"byteOffset":4944,"byteLength":36,"target":34963},{"buffer":0,"byteOffset":4980,"byteLength":288,"target":34962,"byteStride":12},{"buffer":0,"byteOffset":5268,"byteLength":288,"target":34962,"byteStride":12},{"buffer":0,"byteOffset":5556,"byteLength":192,"target":34962,"byteStride":8},{"buffer":0,"byteOffset":5748,"byteLength":36,"target":34963},{"buffer":0,"byteOffset":5784,"byteLength":288,"target":34962,"byteStride":12},{"buffer":0,"byteOffset":6072,"byteLength":288,"target":34962,"byteStride":12},{"buffer":0,"byteOffset":6360,"byteLength":192,"target":34962,"byteStride":8},{"buffer":0,"byteOffset":6552,"byteLength":60,"target":34963},{"buffer":0,"byteOffset":6612,"byteLength":288,"target":34962,"byteStride":12},{"buffer":0,"byteOffset":6900,"byteLength":288,"target":34962,"byteStride":12},{"buffer":0,"byteOffset":7188,"byteLength":192,"target":34962,"byteStride":8},{"buffer":0,"byteOffset":7380,"byteLength":60,"target":34963},{"buffer":0,"byteOffset":7440,"byteLength":288,"target":34962,"byteStride":12},{"buffer":0,"byteOffset":7728,"byteLength":288,"target":34962,"byteStride":12},{"buffer":0,"byteOffset":8016,"byteLength":192,"target":34962,"byteStride":8},{"buffer":0,"byteOffset":8208,"byteLength":72,"target":34963},{"buffer":0,"byteOffset":8280,"byteLength":288,"target":34962,"byteStride":12},{"buffer":0,"byteOffset":8568,"byteLength":288,"target":34962,"byteStride":12},{"buffer":0,"byteOffset":8856,"byteLength":192,"target":34962,"byteStride":8},{"buffer":0,"byteOffset":9048,"byteLength":72,"target":34963},{"buffer":0,"byteOffset":9120,"byteLength":288,"target":34962,"byteStride":12},{"buffer":0,"byteOffset":9408,"byteLength":288,"target":34962,"byteStride":12},{"buffer":0,"byteOffset":9696,"byteLength":192,"target":34962,"byteStride":8},{"buffer":0,"byteOffset":9888,"byteLength":72,"target":34963}],"buffers":[{"byteLength":9960,"uri":"data:application/octet-stream;base64,"}],"accessors":[{"bufferView":0,"componentType":5126,"count":24,"max":[0.3010937571525574,0.078125,0.4937500059604645],"min":[-0.5114062428474426,-0.359375,0.05624999850988388],"type":"VEC3"},{"bufferView":1,"componentType":5126,"count":24,"max":[1,1,1],"min":[-1,-1,-1],"type":"VEC3"},{"bufferView":2,"componentType":5126,"count":24,"max":[0.65625,0.8125],"min":[0,0],"type":"VEC2"},{"bufferView":3,"componentType":5123,"count":36,"max":[23],"min":[0],"type":"SCALAR"},{"bufferView":4,"componentType":5126,"count":24,"max":[-0.07390625029802322,0.453125,-0.0062500000931322575],"min":[-0.5114062428474426,-0.359375,-0.4437499940395355],"type":"VEC3"},{"bufferView":5,"componentType":5126,"count":24,"max":[1,1,1],"min":[-1,-1,-1],"type":"VEC3"},{"bufferView":6,"componentType":5126,"count":24,"max":[0.4375,0.40625],"min":[0,0],"type":"VEC2"},{"bufferView":7,"componentType":5123,"count":36,"max":[23],"min":[0],"type":"SCALAR"},{"bufferView":8,"componentType":5126,"count":24,"max":[0.3135937452316284,-0.12999999523162842,0.03750000149011612],"min":[-0.01953125,-0.15125000476837158,-0.2956250011920929],"type":"VEC3"},{"bufferView":9,"componentType":5126,"count":24,"max":[1,1,1],"min":[-1,-1,-1],"type":"VEC3"},{"bufferView":10,"componentType":5126,"count":24,"max":[0.71875,0.40625],"min":[0.3125,0.21875],"type":"VEC2"},{"bufferView":11,"componentType":5123,"count":36,"max":[23],"min":[0],"type":"SCALAR"},{"bufferView":12,"componentType":5126,"count":24,"max":[0.3135937452316284,-0.026249999180436134,0.03750000149011612],"min":[0.27171874046325684,-0.12999999523162842,-0.2956250011920929],"type":"VEC3"},{"bufferView":13,"componentType":5126,"count":24,"max":[1,1,1],"min":[-1,-1,-1],"type":"VEC3"},{"bufferView":14,"componentType":5126,"count":24,"max":[1,1],"min":[0,0],"type":"VEC2"},{"bufferView":15,"componentType":5123,"count":30,"max":[23],"min":[0],"type":"SCALAR"},{"bufferView":16,"componentType":5126,"count":24,"max":[0.021718749776482582,-0.026249999180436134,0.03750000149011612],"min":[-0.01953125,-0.12999999523162842,-0.2956250011920929],"type":"VEC3"},{"bufferView":17,"componentType":5126,"count":24,"max":[1,1,1],"min":[-1,-1,-1],"type":"VEC3"},{"bufferView":18,"componentType":5126,"count":24,"max":[1,1],"min":[0,0],"type":"VEC2"},{"bufferView":19,"componentType":5123,"count":30,"max":[23],"min":[0],"type":"SCALAR"},{"bufferView":20,"componentType":5126,"count":24,"max":[0.27171874046325684,-0.026249999180436134,0.03750000149011612],"min":[0.021718749776482582,-0.12999999523162842,-0.0043750000186264515],"type":"VEC3"},{"bufferView":21,"componentType":5126,"count":24,"max":[1,1,1],"min":[-1,-1,-1],"type":"VEC3"},{"bufferView":22,"componentType":5126,"count":24,"max":[1,1],"min":[0,0],"type":"VEC2"},{"bufferView":23,"componentType":5123,"count":18,"max":[23],"min":[8],"type":"SCALAR"},{"bufferView":24,"componentType":5126,"count":24,"max":[0.27171874046325684,-0.026249999180436134,-0.25437501072883606],"min":[0.021718749776482582,-0.12999999523162842,-0.2956250011920929],"type":"VEC3"},{"bufferView":25,"componentType":5126,"count":24,"max":[1,1,1],"min":[-1,-1,-1],"type":"VEC3"},{"bufferView":26,"componentType":5126,"count":24,"max":[1,1],"min":[0,0],"type":"VEC2"},{"bufferView":27,"componentType":5123,"count":18,"max":[23],"min":[8],"type":"SCALAR"},{"bufferView":28,"componentType":5126,"count":24,"max":[0.23046875,-0.15125000476837158,-0.045625001192092896],"min":[0.06359375268220901,-0.2762500047683716,-0.21250000596046448],"type":"VEC3"},{"bufferView":29,"componentType":5126,"count":24,"max":[1,1,1],"min":[-1,-1,-1],"type":"VEC3"},{"bufferView":30,"componentType":5126,"count":24,"max":[1,1],"min":[0,0],"type":"VEC2"},{"bufferView":31,"componentType":5123,"count":30,"max":[23],"min":[0],"type":"SCALAR"},{"bufferView":32,"componentType":5126,"count":24,"max":[0.18859374523162842,-0.19249999523162842,0.05312500149011612],"min":[0.10546875,-0.2762500047683716,-0.045625001192092896],"type":"VEC3"},{"bufferView":33,"componentType":5126,"count":24,"max":[1,1,1],"min":[-1,-1,-1],"type":"VEC3"},{"bufferView":34,"componentType":5126,"count":24,"max":[1,1],"min":[0,0],"type":"VEC2"},{"bufferView":35,"componentType":5123,"count":30,"max":[19],"min":[0],"type":"SCALAR"},{"bufferView":36,"componentType":5126,"count":24,"max":[-0.2614062428474426,0.265625,0.11874999850988388],"min":[-0.3239062428474426,0.203125,-0.0062500000931322575],"type":"VEC3"},{"bufferView":37,"componentType":5126,"count":24,"max":[1,1,1],"min":[-1,-1,-1],"type":"VEC3"},{"bufferView":38,"componentType":5126,"count":24,"max":[0.375,0.40625],"min":[0.21875,0.21875],"type":"VEC2"},{"bufferView":39,"componentType":5123,"count":36,"max":[23],"min":[0],"type":"SCALAR"},{"bufferView":40,"componentType":5126,"count":24,"max":[-0.19890624284744263,0.265625,0.11874999850988388],"min":[-0.2614062428474426,0.140625,0.05624999850988388],"type":"VEC3"},{"bufferView":41,"componentType":5126,"count":24,"max":[1,1,1],"min":[-1,-1,-1],"type":"VEC3"},{"bufferView":42,"componentType":5126,"count":24,"max":[0.40625,0.40625],"min":[0.21875,0.21875],"type":"VEC2"},{"bufferView":43,"componentType":5123,"count":36,"max":[23],"min":[0],"type":"SCALAR"},{"bufferView":44,"componentType":5126,"count":24,"max":[-0.19890624284744263,0.203125,0.18125000596046448],"min":[-0.2614062428474426,0.078125,0.11874999850988388],"type":"VEC3"},{"bufferView":45,"componentType":5126,"count":24,"max":[1,1,1],"min":[-1,-1,-1],"type":"VEC3"},{"bufferView":46,"componentType":5126,"count":24,"max":[0.40625,0.40625],"min":[0.28125,0.21875],"type":"VEC2"},{"bufferView":47,"componentType":5123,"count":36,"max":[23],"min":[0],"type":"SCALAR"}],"materials":[{"pbrMetallicRoughness":{"metallicFactor":0,"roughnessFactor":1,"baseColorTexture":{"index":0}},"alphaMode":"MASK","alphaCutoff":0.05}],"textures":[{"sampler":0,"source":0,"name":"brewing_keg.png"}],"samplers":[{"magFilter":9728,"minFilter":9728,"wrapS":33071,"wrapT":33071}],"images":[{"mimeType":"image/png","uri":"data:image/png;base64,"}],"meshes":[{"primitives":[{"mode":4,"attributes":{"POSITION":0,"NORMAL":1,"TEXCOORD_0":2},"indices":3,"material":0}]},{"primitives":[{"mode":4,"attributes":{"POSITION":4,"NORMAL":5,"TEXCOORD_0":6},"indices":7,"material":0}]},{"primitives":[{"mode":4,"attributes":{"POSITION":8,"NORMAL":9,"TEXCOORD_0":10},"indices":11,"material":0}]},{"primitives":[{"mode":4,"attributes":{"POSITION":12,"NORMAL":13,"TEXCOORD_0":14},"indices":15,"material":0}]},{"primitives":[{"mode":4,"attributes":{"POSITION":16,"NORMAL":17,"TEXCOORD_0":18},"indices":19,"material":0}]},{"primitives":[{"mode":4,"attributes":{"POSITION":20,"NORMAL":21,"TEXCOORD_0":22},"indices":23,"material":0}]},{"primitives":[{"mode":4,"attributes":{"POSITION":24,"NORMAL":25,"TEXCOORD_0":26},"indices":27,"material":0}]},{"primitives":[{"mode":4,"attributes":{"POSITION":28,"NORMAL":29,"TEXCOORD_0":30},"indices":31,"material":0}]},{"primitives":[{"mode":4,"attributes":{"POSITION":32,"NORMAL":33,"TEXCOORD_0":34},"indices":35,"material":0}]},{"primitives":[{"mode":4,"attributes":{"POSITION":36,"NORMAL":37,"TEXCOORD_0":38},"indices":39,"material":0}]},{"primitives":[{"mode":4,"attributes":{"POSITION":40,"NORMAL":41,"TEXCOORD_0":42},"indices":43,"material":0}]},{"primitives":[{"mode":4,"attributes":{"POSITION":44,"NORMAL":45,"TEXCOORD_0":46},"indices":47,"material":0}]}]}